<svg width="27" height="32" viewBox="0 0 27 32" fill="none" xmlns="http://www.w3.org/2000/svg">
<path d="M24.5616 15.7462C23.688 14.3072 22.4491 13.1029 20.9653 12.245C21.0101 11.8589 21.0325 11.4665 21.0325 11.0741C21.0325 10.8931 21.0261 10.7026 21.0133 10.4938C20.7223 5.39338 16.6048 1.32002 11.4352 1.01784C6.95116 0.757936 2.86689 3.35765 1.27437 7.48716L1.25583 7.54519C1.01919 8.26183 1 9.02011 1 9.02705L1.00831 20.7627L5.97007 20.7589V22.9788C5.97007 22.9857 5.98926 23.7472 6.22717 24.4651L6.24444 24.5187C6.9889 26.4459 8.28722 28.0773 9.9987 29.2355C11.7038 30.39 13.7063 31 15.7893 31C15.9953 31 16.205 30.9937 16.4116 30.9811C21.5812 30.6751 25.6962 26.5986 25.9834 21.4957C25.9942 21.2743 26 21.0913 26 20.9185C26 19.0846 25.5024 17.2955 24.5616 15.7462ZM8.88393 17.8822V14.1173H17.4426C16.6886 15.7228 15.3621 16.9845 13.6481 17.71C13.6372 17.7144 13.6161 17.7226 13.6065 17.7258C13.4018 17.7996 13.0654 17.8828 12.793 17.8778C12.7559 17.8772 12.7226 17.8784 12.7015 17.8797L8.88393 17.8822ZM8.88393 20.7582L13.1127 20.7545H13.1249C13.162 20.7545 13.201 20.7545 13.2458 20.7513C13.57 20.7305 13.8937 20.6718 14.2058 20.5772C14.2262 20.5709 14.2857 20.5513 14.2857 20.5513L14.2991 20.5469C16.9482 19.583 19.0543 17.6406 20.164 15.1652C22.1357 16.6092 23.2153 18.8745 23.0746 21.3386C22.868 24.9843 19.9286 27.8962 16.2332 28.1126C16.104 28.1208 15.9575 28.1252 15.7855 28.1252C13.1179 28.1252 10.7451 26.7658 9.43844 24.4891C9.0758 23.8551 8.88393 23.1182 8.88393 22.36V20.7582ZM10.8186 3.87368C10.99 3.87368 11.1307 3.87746 11.2638 3.88629C14.9573 4.10078 17.8993 7.01024 18.1071 10.654C18.118 10.8546 18.1218 11.0514 18.1173 11.2432C18.1014 11.2432 18.086 11.2432 18.0707 11.2432H5.97007V17.8847L3.91962 17.886L3.9145 9.64338C3.9145 8.88385 4.10637 8.14765 4.46965 7.51428C5.77372 5.2363 8.14523 3.87557 10.8186 3.87368Z" fill="#FFC44A" stroke="#FFC44A"/>
</svg>
